<?xml version="1.0" standalone="no"?>
<!DOCTYPE svg PUBLIC "-//W3C//DTD SVG 20010904//EN"
 "http://www.w3.org/TR/2001/REC-SVG-20010904/DTD/svg10.dtd">
<svg version="1.0" xmlns="http://www.w3.org/2000/svg"
 width="357.000000pt" height="433.000000pt" viewBox="0 0 357.000000 433.000000"
 preserveAspectRatio="xMidYMid meet">

<g transform="translate(0.000000,433.000000) scale(0.100000,-0.100000)"
fill="#000000" stroke="none">
<path d="M1785 3020 c-3 -5 -1 -10 4 -10 6 0 11 5 11 10 0 6 -2 10 -4 10 -3 0
-8 -4 -11 -10z"/>
<path d="M1830 3020 c0 -5 7 -7 15 -4 8 4 15 8 15 10 0 2 -7 4 -15 4 -8 0 -15
-4 -15 -10z"/>
<path d="M1845 3000 c-3 -6 1 -7 9 -4 18 7 21 14 7 14 -6 0 -13 -4 -16 -10z"/>
<path d="M1748 2963 c7 -3 16 -2 19 1 4 3 -2 6 -13 5 -11 0 -14 -3 -6 -6z"/>
<path d="M1890 2941 c0 -5 5 -13 10 -16 6 -3 10 -2 10 4 0 5 -4 13 -10 16 -5
3 -10 2 -10 -4z"/>
<path d="M1870 2910 c0 -5 5 -10 11 -10 5 0 7 5 4 10 -3 6 -8 10 -11 10 -2 0
-4 -4 -4 -10z"/>
<path d="M1950 2841 c0 -5 5 -13 10 -16 6 -3 10 -2 10 4 0 5 -4 13 -10 16 -5
3 -10 2 -10 -4z"/>
<path d="M1860 2825 c0 -8 4 -15 8 -15 5 0 9 7 9 15 0 8 -4 15 -9 15 -4 0 -8
-7 -8 -15z"/>
<path d="M1665 2820 c3 -5 11 -10 16 -10 6 0 7 5 4 10 -3 6 -11 10 -16 10 -6
0 -7 -4 -4 -10z"/>
<path d="M1976 2785 c-3 -8 -1 -15 4 -15 6 0 10 7 10 15 0 8 -2 15 -4 15 -2 0
-6 -7 -10 -15z"/>
<path d="M1720 2769 c0 -5 5 -7 10 -4 6 3 10 8 10 11 0 2 -4 4 -10 4 -5 0 -10
-5 -10 -11z"/>
<path d="M1857 2733 c-4 -3 -7 -11 -7 -17 0 -6 5 -5 12 2 6 6 9 14 7 17 -3 3
-9 2 -12 -2z"/>
<path d="M1890 2680 c0 -5 5 -10 11 -10 5 0 7 5 4 10 -3 6 -8 10 -11 10 -2 0
-4 -4 -4 -10z"/>
<path d="M1790 2640 c-12 -8 -10 -10 8 -10 13 0 20 4 17 10 -7 12 -6 12 -25 0z"/>
<path d="M1850 2630 c-8 -5 -12 -11 -9 -14 3 -3 14 1 25 9 21 16 8 20 -16 5z"/>
<path d="M2076 2625 c4 -8 11 -15 16 -15 6 0 5 6 -2 15 -7 8 -14 15 -16 15 -2
0 -1 -7 2 -15z"/>
<path d="M1915 2610 c-3 -6 1 -7 9 -4 18 7 21 14 7 14 -6 0 -13 -4 -16 -10z"/>
<path d="M1510 2599 c0 -5 5 -7 10 -4 6 3 10 8 10 11 0 2 -4 4 -10 4 -5 0 -10
-5 -10 -11z"/>
<path d="M1575 2590 c3 -5 8 -10 11 -10 2 0 4 5 4 10 0 6 -5 10 -11 10 -5 0
-7 -4 -4 -10z"/>
<path d="M1744 2586 c-6 -7 -17 -23 -24 -37 -7 -13 -19 -27 -26 -32 -7 -4 -10
-15 -7 -23 5 -13 2 -15 -15 -9 -14 4 -22 2 -22 -5 0 -6 5 -8 10 -5 22 14 8
-27 -29 -82 -44 -67 -98 -158 -124 -211 -11 -20 -28 -46 -38 -58 -11 -11 -36
-52 -55 -90 -20 -38 -45 -81 -55 -96 -11 -14 -19 -29 -19 -33 0 -3 -17 -32
-37 -63 -20 -31 -45 -72 -55 -90 -10 -17 -27 -41 -38 -52 -11 -11 -20 -27 -20
-35 0 -8 -4 -15 -10 -15 -5 0 -10 -7 -10 -16 0 -25 -62 -116 -71 -103 -5 8 -8
8 -13 0 -4 -6 -2 -11 4 -11 19 0 1 -43 -28 -69 -15 -13 -21 -20 -14 -17 18 10
14 -5 -8 -34 -11 -14 -20 -30 -20 -36 0 -5 -9 -20 -20 -32 -12 -12 -18 -22
-16 -22 6 0 -4 -19 -88 -157 -33 -54 -63 -100 -67 -103 -5 -3 -15 -21 -23 -40
-15 -38 -56 -90 -56 -73 0 6 -7 14 -16 17 -8 3 -13 2 -10 -3 3 -5 -44 -9 -104
-10 -61 -1 -120 -6 -133 -11 l-22 -9 22 -6 c12 -4 24 -13 27 -21 4 -11 33 -14
136 -14 130 0 131 0 157 28 14 15 51 72 82 127 153 267 465 802 689 1178 145
245 199 327 213 327 22 0 22 0 9 34 -10 28 -38 34 -56 12z"/>
<path d="M2100 2583 c0 -13 5 -23 10 -23 13 0 13 11 0 30 -8 12 -10 11 -10 -7z"/>
<path d="M1865 2549 c-4 -6 -5 -12 -2 -15 2 -3 7 2 10 11 7 17 1 20 -8 4z"/>
<path d="M1650 2540 c-9 -6 -10 -10 -3 -10 6 0 15 5 18 10 8 12 4 12 -15 0z"/>
<path d="M1890 2529 c-6 -11 -10 -28 -8 -37 2 -10 8 -1 15 21 12 41 10 48 -7
16z"/>
<path d="M1461 2531 c-8 -6 -9 -11 -3 -15 6 -3 14 -1 17 5 9 14 2 20 -14 10z"/>
<path d="M2071 2507 c-13 -21 -12 -21 5 -5 10 10 16 20 13 22 -3 3 -11 -5 -18
-17z"/>
<path d="M2040 2510 c-9 -6 -10 -10 -3 -10 6 0 15 5 18 10 8 12 4 12 -15 0z"/>
<path d="M2150 2485 c-10 -13 -9 -15 8 -15 15 0 20 5 16 15 -4 8 -7 15 -9 15
-1 0 -8 -7 -15 -15z"/>
<path d="M1410 2478 c0 -4 4 -8 9 -8 6 0 12 4 15 8 3 5 -1 9 -9 9 -8 0 -15 -4
-15 -9z"/>
<path d="M2018 2478 c5 -5 16 -8 23 -6 8 3 3 7 -10 11 -17 4 -21 3 -13 -5z"/>
<path d="M1608 2453 c7 -3 16 -2 19 1 4 3 -2 6 -13 5 -11 0 -14 -3 -6 -6z"/>
<path d="M2008 2453 c7 -3 16 -2 19 1 4 3 -2 6 -13 5 -11 0 -14 -3 -6 -6z"/>
<path d="M1460 2446 c0 -2 7 -6 15 -10 8 -3 15 -1 15 4 0 6 -7 10 -15 10 -8 0
-15 -2 -15 -4z"/>
<path d="M1565 2430 c-3 -6 1 -7 9 -4 18 7 21 14 7 14 -6 0 -13 -4 -16 -10z"/>
<path d="M1876 2426 c7 -18 34 -22 34 -4 0 6 -3 8 -7 5 -3 -4 -12 -2 -20 5
-11 8 -12 7 -7 -6z"/>
<path d="M2170 2430 c0 -4 12 -10 26 -13 18 -3 22 -1 15 6 -13 13 -41 18 -41
7z"/>
<path d="M1980 2399 c0 -5 5 -7 10 -4 6 3 10 8 10 11 0 2 -4 4 -10 4 -5 0 -10
-5 -10 -11z"/>
<path d="M2062 2370 c-16 -25 -15 -31 2 -24 14 5 30 44 17 44 -3 0 -12 -9 -19
-20z"/>
<path d="M1355 2360 c-3 -5 -1 -10 4 -10 6 0 11 5 11 10 0 6 -2 10 -4 10 -3 0
-8 -4 -11 -10z"/>
<path d="M2107 2363 c-4 -3 -7 -11 -7 -17 0 -6 5 -5 12 2 6 6 9 14 7 17 -3 3
-9 2 -12 -2z"/>
<path d="M2238 2358 c8 -8 8 -17 1 -32 -10 -20 -9 -20 5 -3 15 20 11 47 -7 47
-8 0 -7 -4 1 -12z"/>
<path d="M1810 2353 c0 -6 8 -17 18 -24 16 -13 16 -13 2 6 -8 11 -16 22 -17
24 -2 2 -3 0 -3 -6z"/>
<path d="M2260 2321 c0 -5 5 -13 10 -16 6 -3 10 -2 10 4 0 5 -4 13 -10 16 -5
3 -10 2 -10 -4z"/>
<path d="M2170 2310 c-8 -5 -10 -10 -5 -10 6 0 17 5 25 10 8 5 11 10 5 10 -5
0 -17 -5 -25 -10z"/>
<path d="M1967 2303 c-10 -10 -8 -33 2 -33 6 0 9 9 8 20 -1 23 -1 22 -10 13z"/>
<path d="M1479 2283 c-13 -16 -12 -17 4 -4 9 7 17 15 17 17 0 8 -8 3 -21 -13z"/>
<path d="M2211 2280 c-13 -11 -19 -20 -13 -20 10 0 42 27 42 36 0 7 -4 5 -29
-16z"/>
<path d="M2035 2280 c-3 -5 -1 -10 4 -10 6 0 11 5 11 10 0 6 -2 10 -4 10 -3 0
-8 -4 -11 -10z"/>
<path d="M2265 2277 c-11 -7 -21 -19 -23 -27 -2 -13 -1 -13 10 0 7 8 24 14 38
12 14 -2 21 1 15 5 -5 5 -12 11 -15 15 -3 3 -14 1 -25 -5z"/>
<path d="M1350 2270 c-8 -5 -12 -12 -9 -15 4 -3 12 1 19 10 14 17 11 19 -10 5z"/>
<path d="M2085 2260 c-8 -13 -1 -24 14 -19 6 3 7 10 2 18 -6 10 -10 10 -16 1z"/>
<path d="M1869 2243 c-13 -16 -12 -17 4 -4 9 7 17 15 17 17 0 8 -8 3 -21 -13z"/>
<path d="M2140 2256 c0 -2 9 -6 20 -9 11 -3 18 -1 14 4 -5 9 -34 13 -34 5z"/>
<path d="M1710 2240 c-9 -6 -10 -10 -3 -10 6 0 15 5 18 10 8 12 4 12 -15 0z"/>
<path d="M2047 2243 c-4 -3 -7 -11 -7 -17 0 -6 5 -5 12 2 6 6 9 14 7 17 -3 3
-9 2 -12 -2z"/>
<path d="M2293 2235 c-3 -9 -3 -19 1 -22 3 -4 6 -1 6 5 0 7 5 12 10 12 17 0
11 -25 -10 -38 -11 -7 -20 -17 -20 -22 0 -6 12 -3 27 7 19 13 28 14 31 5 2 -6
7 -12 12 -12 5 0 -1 18 -13 40 -24 43 -34 49 -44 25z"/>
<path d="M2170 2215 c-33 -36 -21 -39 14 -4 16 16 25 29 19 29 -5 0 -20 -11
-33 -25z"/>
<path d="M2000 2224 c0 -13 18 -39 24 -34 2 3 -2 14 -10 24 -8 11 -14 16 -14
10z"/>
<path d="M2102 2218 c-7 -7 -12 -16 -12 -21 0 -5 7 -1 16 8 9 9 14 18 12 20
-2 3 -10 -1 -16 -7z"/>
<path d="M2140 2219 c0 -5 5 -7 10 -4 6 3 10 8 10 11 0 2 -4 4 -10 4 -5 0 -10
-5 -10 -11z"/>
<path d="M1865 2210 c-3 -5 -1 -10 4 -10 6 0 11 5 11 10 0 6 -2 10 -4 10 -3 0
-8 -4 -11 -10z"/>
<path d="M2255 2209 c-11 -17 1 -21 15 -4 8 9 8 15 2 15 -6 0 -14 -5 -17 -11z"/>
<path d="M2222 2198 c-7 -7 -12 -16 -12 -21 0 -5 7 -1 16 8 9 9 14 18 12 20
-2 3 -10 -1 -16 -7z"/>
<path d="M2057 2184 c-3 -3 -3 -13 0 -22 4 -12 1 -11 -10 3 -19 23 -22 8 -4
-16 11 -15 15 -15 32 -3 10 8 14 14 7 14 -6 0 -9 7 -6 15 6 15 -7 21 -19 9z"/>
<path d="M1920 2166 c0 -9 5 -16 10 -16 6 0 10 4 10 9 0 6 -4 13 -10 16 -5 3
-10 -1 -10 -9z"/>
<path d="M2127 2150 c3 -11 7 -20 9 -20 2 0 4 9 4 20 0 11 -4 20 -9 20 -5 0
-7 -9 -4 -20z"/>
<path d="M1840 2144 c0 -8 5 -12 10 -9 6 3 10 10 10 16 0 5 -4 9 -10 9 -5 0
-10 -7 -10 -16z"/>
<path d="M2341 2147 c-6 -6 -11 -16 -11 -21 0 -6 5 -4 11 4 8 11 12 12 16 3 6
-17 23 -16 23 1 0 19 -25 27 -39 13z"/>
<path d="M1393 2143 c-21 -8 -15 -22 7 -16 11 3 20 9 20 14 0 10 -8 10 -27 2z"/>
<path d="M1640 2113 c-19 -20 -21 -24 -7 -19 10 3 26 6 35 7 10 0 12 3 5 5 -7
3 -9 12 -6 20 7 19 2 17 -27 -13z"/>
<path d="M2157 2126 c-4 -10 1 -12 14 -9 23 6 24 9 5 16 -8 3 -17 0 -19 -7z"/>
<path d="M1695 2120 c3 -5 8 -10 11 -10 2 0 4 5 4 10 0 6 -5 10 -11 10 -5 0
-7 -4 -4 -10z"/>
<path d="M2073 2122 c-8 -5 -8 -12 2 -25 12 -17 13 -16 11 7 0 15 -1 26 -1 26
0 0 -5 -4 -12 -8z"/>
<path d="M2200 2123 c0 -6 -17 -18 -37 -27 -31 -14 -33 -16 -11 -13 15 2 29
-1 31 -7 3 -6 10 2 16 18 6 16 9 31 6 34 -3 3 -5 1 -5 -5z"/>
<path d="M1235 2100 c-3 -5 1 -10 10 -10 9 0 13 5 10 10 -3 6 -8 10 -10 10 -2
0 -7 -4 -10 -10z"/>
<path d="M1905 2100 c-3 -5 1 -10 9 -10 9 0 16 5 16 10 0 6 -4 10 -9 10 -6 0
-13 -4 -16 -10z"/>
<path d="M2365 2100 c-8 -13 5 -13 25 0 13 8 13 10 -2 10 -9 0 -20 -4 -23 -10z"/>
<path d="M1815 2090 c3 -5 8 -10 11 -10 2 0 4 5 4 10 0 6 -5 10 -11 10 -5 0
-7 -4 -4 -10z"/>
<path d="M1861 2087 c-6 -8 -8 -17 -4 -20 12 -12 19 -7 19 13 0 24 0 24 -15 7z"/>
<path d="M1960 2089 c-13 -7 -12 -9 1 -9 9 0 24 -15 33 -32 8 -18 16 -27 16
-21 0 7 -8 26 -18 42 -13 22 -22 27 -32 20z"/>
<path d="M2270 2084 c0 -8 5 -12 10 -9 6 3 10 10 10 16 0 5 -4 9 -10 9 -5 0
-10 -7 -10 -16z"/>
<path d="M1370 2075 c-7 -8 -8 -15 -2 -15 5 0 15 7 22 15 7 8 8 15 2 15 -5 0
-15 -7 -22 -15z"/>
<path d="M1646 2075 c-3 -8 4 -12 20 -11 29 1 32 12 5 19 -11 3 -22 -1 -25 -8z"/>
<path d="M2210 2080 c0 -5 7 -10 15 -10 8 0 15 5 15 10 0 6 -7 10 -15 10 -8 0
-15 -4 -15 -10z"/>
<path d="M2393 2076 c0 -8 5 -14 10 -13 5 1 12 -4 14 -11 4 -9 -4 -11 -27 -7
-31 6 -90 -12 -90 -27 0 -12 15 -9 28 4 10 10 15 10 21 -1 5 -8 11 -9 15 -3 3
6 0 12 -6 15 -7 2 6 4 29 3 37 -1 44 -5 52 -28 6 -16 6 -30 1 -33 -5 -3 -7
-12 -5 -20 3 -8 7 -22 10 -31 3 -8 10 -12 15 -9 8 5 6 14 -4 30 -8 12 -12 25
-9 29 9 9 23 -3 23 -20 0 -16 28 -49 35 -42 7 6 -89 171 -101 175 -6 2 -11 -3
-11 -11z"/>
<path d="M2101 2071 c-8 -6 -9 -11 -3 -15 6 -3 14 -1 17 5 9 14 2 20 -14 10z"/>
<path d="M1295 2060 c-3 -5 -1 -10 4 -10 6 0 11 5 11 10 0 6 -2 10 -4 10 -3 0
-8 -4 -11 -10z"/>
<path d="M1896 2055 c-3 -9 -12 -12 -23 -9 -14 5 -15 4 -4 -4 18 -13 41 -5 41
14 0 18 -6 18 -14 -1z"/>
<path d="M2132 2050 c-12 -10 -19 -21 -15 -23 5 -3 16 6 26 19 21 29 19 30
-11 4z"/>
<path d="M2291 2061 c-7 -5 -12 -14 -9 -21 2 -7 10 -4 22 9 19 21 12 28 -13
12z"/>
<path d="M1185 2049 c-4 -6 -5 -12 -2 -15 2 -3 7 2 10 11 7 17 1 20 -8 4z"/>
<path d="M2213 2053 c-7 -2 -13 -12 -13 -21 1 -15 2 -14 11 2 7 11 14 14 18 8
4 -6 11 -5 19 4 11 12 10 14 -5 13 -10 0 -24 -3 -30 -6z"/>
<path d="M1245 2040 c-3 -5 -1 -10 4 -10 6 0 11 5 11 10 0 6 -2 10 -4 10 -3 0
-8 -4 -11 -10z"/>
<path d="M1613 2035 c0 -8 4 -15 9 -15 4 0 8 7 8 15 0 8 -4 15 -8 15 -5 0 -9
-7 -9 -15z"/>
<path d="M1665 2040 c-3 -5 -1 -10 4 -10 6 0 11 5 11 10 0 6 -2 10 -4 10 -3 0
-8 -4 -11 -10z"/>
<path d="M1590 2029 c0 -5 -4 -8 -9 -4 -5 3 -12 1 -16 -5 -3 -5 -4 -10 -1 -10
2 0 11 -2 18 -5 9 -4 14 2 15 15 1 11 0 20 -3 20 -2 0 -4 -5 -4 -11z"/>
<path d="M1327 2023 c-4 -3 -7 -13 -7 -22 1 -13 2 -13 11 2 6 9 15 14 21 11 7
-4 8 -2 4 4 -8 13 -19 15 -29 5z"/>
<path d="M2250 2020 c-8 -5 -12 -12 -9 -15 4 -3 12 1 19 10 14 17 11 19 -10 5z"/>
<path d="M1286 2004 c-4 -9 -4 -19 -1 -22 2 -3 7 3 11 12 4 9 4 19 1 22 -2 3
-7 -3 -11 -12z"/>
<path d="M1375 2010 c-3 -5 -1 -10 4 -10 6 0 11 5 11 10 0 6 -2 10 -4 10 -3 0
-8 -4 -11 -10z"/>
<path d="M1975 2000 c-3 -5 -1 -10 4 -10 6 0 11 5 11 10 0 6 -2 10 -4 10 -3 0
-8 -4 -11 -10z"/>
<path d="M2132 2001 c4 -13 18 -16 19 -4 0 4 -5 9 -11 12 -7 2 -11 -2 -8 -8z"/>
<path d="M2210 1990 c-6 -11 -8 -20 -6 -20 3 0 10 9 16 20 6 11 8 20 6 20 -3
0 -10 -9 -16 -20z"/>
<path d="M1709 1983 c-13 -16 -12 -17 4 -4 9 7 17 15 17 17 0 8 -8 3 -21 -13z"/>
<path d="M2025 1990 c3 -5 8 -10 11 -10 2 0 4 5 4 10 0 6 -5 10 -11 10 -5 0
-7 -4 -4 -10z"/>
<path d="M2298 1993 c7 -3 16 -2 19 1 4 3 -2 6 -13 5 -11 0 -14 -3 -6 -6z"/>
<path d="M2370 1966 c0 -30 3 -33 21 -29 18 5 20 3 15 -18 -7 -23 -6 -23 8 -5
21 26 20 36 -1 37 -11 0 -13 3 -5 6 21 8 13 21 -10 15 -17 -4 -20 -2 -15 11 4
10 2 17 -3 17 -6 0 -10 -15 -10 -34z"/>
<path d="M1850 1969 c0 -5 5 -7 10 -4 6 3 10 8 10 11 0 2 -4 4 -10 4 -5 0 -10
-5 -10 -11z"/>
<path d="M1885 1970 c-3 -5 -2 -10 4 -10 5 0 13 5 16 10 3 6 2 10 -4 10 -5 0
-13 -4 -16 -10z"/>
<path d="M2265 1970 c-3 -5 -1 -10 4 -10 6 0 11 5 11 10 0 6 -2 10 -4 10 -3 0
-8 -4 -11 -10z"/>
<path d="M1188 1963 c7 -3 16 -2 19 1 4 3 -2 6 -13 5 -11 0 -14 -3 -6 -6z"/>
<path d="M1760 1955 c-8 -9 -8 -15 -2 -15 12 0 26 19 19 26 -2 2 -10 -2 -17
-11z"/>
<path d="M2031 1944 c-6 -15 -9 -29 -7 -32 3 -3 8 3 12 12 3 9 11 16 16 16 6
0 7 -7 4 -16 -6 -15 -4 -15 10 -3 10 8 12 15 5 17 -6 2 -11 10 -11 18 0 23
-16 16 -29 -12z"/>
<path d="M2160 1956 c0 -19 17 -29 25 -16 3 5 1 10 -5 10 -6 0 -8 5 -5 10 3 6
1 10 -4 10 -6 0 -11 -6 -11 -14z"/>
<path d="M2296 1948 c-9 -12 -14 -24 -12 -26 9 -8 31 13 32 31 2 22 -2 22 -20
-5z"/>
<path d="M2002 1935 c0 -16 2 -22 5 -12 2 9 2 23 0 30 -3 6 -5 -1 -5 -18z"/>
<path d="M1205 1940 c-3 -5 -1 -10 4 -10 6 0 11 5 11 10 0 6 -2 10 -4 10 -3 0
-8 -4 -11 -10z"/>
<path d="M1716 1935 c-3 -8 -1 -15 3 -15 5 0 11 7 15 15 3 8 1 15 -3 15 -5 0
-11 -7 -15 -15z"/>
<path d="M1895 1940 c-3 -5 -1 -10 4 -10 6 0 11 5 11 10 0 6 -2 10 -4 10 -3 0
-8 -4 -11 -10z"/>
<path d="M2336 1941 c-3 -5 1 -14 8 -20 12 -10 13 -8 9 8 -6 23 -9 25 -17 12z"/>
<path d="M1097 1933 c-4 -3 -7 -11 -7 -17 0 -6 5 -5 12 2 6 6 9 14 7 17 -3 3
-9 2 -12 -2z"/>
<path d="M1841 1924 c-18 -21 -6 -30 14 -11 8 9 15 18 15 21 0 11 -15 5 -29
-10z"/>
<path d="M2198 1927 c-11 -9 -14 -18 -8 -27 10 -17 15 -13 24 18 8 25 7 26
-16 9z"/>
<path d="M2257 1933 c-4 -3 -7 -11 -7 -17 0 -6 5 -5 12 2 6 6 9 14 7 17 -3 3
-9 2 -12 -2z"/>
<path d="M1732 1880 c-15 -21 -38 -44 -52 -50 -22 -9 -22 -10 -3 -6 19 3 21 1
13 -15 -7 -11 -17 -16 -28 -13 -13 5 -14 4 -3 -4 19 -14 -4 -52 -32 -52 -16 0
-18 -3 -9 -9 11 -6 10 -10 -4 -15 -16 -6 -16 -8 -4 -16 10 -7 11 -10 3 -10 -7
0 -12 -5 -10 -12 1 -6 -9 -17 -23 -25 -14 -7 -19 -13 -12 -13 8 0 6 -11 -8
-37 -18 -33 -18 -38 -5 -41 30 -7 40 5 109 119 91 151 113 179 139 180 21 0
21 1 2 9 -11 5 -14 9 -7 9 18 1 15 21 -4 21 -8 0 -12 5 -9 10 3 6 -1 10 -10
10 -8 0 -28 -18 -43 -40z"/>
<path d="M1132 1903 c-7 -2 -17 -14 -23 -26 -11 -20 -10 -20 17 3 16 14 31 26
33 28 7 4 -14 1 -27 -5z"/>
<path d="M2223 1903 c4 -3 2 -12 -4 -19 -9 -11 -2 -29 27 -79 39 -64 54 -79
54 -51 0 17 18 31 27 22 3 -3 0 -12 -7 -21 -10 -12 -10 -15 4 -15 10 0 16 9
16 25 0 18 -5 25 -19 25 -11 0 -23 -5 -26 -10 -4 -6 -11 -8 -16 -4 -6 4 -6 11
2 20 10 12 9 13 -5 8 -17 -7 -23 11 -6 19 6 3 5 4 -2 3 -13 -3 -48 30 -48 45
0 4 5 11 10 14 14 8 13 25 -2 25 -6 0 -8 -3 -5 -7z"/>
<path d="M1860 1891 c0 -5 -8 -12 -17 -14 -10 -2 -4 -4 13 -3 21 1 30 5 27 14
-6 14 -23 16 -23 3z"/>
<path d="M2005 1890 c-3 -5 -1 -10 4 -10 6 0 11 5 11 10 0 6 -2 10 -4 10 -3 0
-8 -4 -11 -10z"/>
<path d="M2069 1882 c-15 -15 -15 -19 -2 -31 12 -11 14 -10 11 5 -2 13 2 18
14 16 12 -2 16 2 12 13 -8 19 -15 18 -35 -3z"/>
<path d="M2300 1885 c0 -8 -9 -15 -19 -15 -11 0 -23 -4 -26 -10 -3 -5 3 -10
14 -10 11 0 23 5 26 10 3 6 15 10 25 10 13 0 17 5 14 15 -4 8 -12 15 -20 15
-8 0 -14 -7 -14 -15z"/>
<path d="M2445 1890 c-3 -5 -1 -10 4 -10 6 0 11 5 11 10 0 6 -2 10 -4 10 -3 0
-8 -4 -11 -10z"/>
<path d="M2390 1879 c0 -5 5 -7 10 -4 6 3 10 8 10 11 0 2 -4 4 -10 4 -5 0 -10
-5 -10 -11z"/>
<path d="M2470 1882 c0 -7 -9 -12 -20 -12 -11 0 -20 -4 -20 -9 0 -15 39 -8 45
8 3 7 3 16 0 19 -3 3 -5 0 -5 -6z"/>
<path d="M2503 1883 c-7 -2 -13 -9 -13 -15 0 -7 5 -7 13 1 8 6 17 8 20 4 4 -3
7 -1 7 5 0 13 -7 14 -27 5z"/>
<path d="M1160 1860 c-8 -5 -11 -12 -7 -17 5 -4 11 -3 15 3 4 6 14 14 22 17
13 5 13 5 0 6 -8 0 -22 -3 -30 -9z"/>
<path d="M1514 1858 c-3 -4 4 -8 15 -8 11 0 22 4 26 9 3 6 -4 9 -16 8 -11 -1
-23 -5 -25 -9z"/>
<path d="M1685 1860 c-3 -5 -2 -10 4 -10 5 0 13 5 16 10 3 6 2 10 -4 10 -5 0
-13 -4 -16 -10z"/>
<path d="M1905 1860 c-8 -13 5 -13 25 0 13 8 13 10 -2 10 -9 0 -20 -4 -23 -10z"/>
<path d="M2400 1860 c-13 -8 -12 -10 3 -10 9 0 17 5 17 10 0 12 -1 12 -20 0z"/>
<path d="M2115 1853 c3 -7 -3 -18 -15 -25 -11 -7 -20 -17 -20 -22 0 -4 7 -3
15 4 8 7 22 10 30 6 19 -7 19 5 -1 30 -8 10 -13 14 -9 7z"/>
<path d="M2310 1850 c-12 -8 -11 -10 7 -10 12 0 25 5 28 10 8 13 -15 13 -35 0z"/>
<path d="M1089 1833 c-12 -16 -12 -17 1 -7 8 6 22 14 30 17 13 5 12 6 -1 6 -9
1 -23 -7 -30 -16z"/>
<path d="M1937 1830 c-3 -11 -2 -20 3 -20 4 0 10 9 13 20 3 11 2 20 -3 20 -4
0 -10 -9 -13 -20z"/>
<path d="M2480 1840 c-13 -8 -13 -10 2 -10 9 0 20 5 23 10 8 13 -5 13 -25 0z"/>
<path d="M2533 1843 c-7 -3 -13 -11 -13 -20 0 -12 2 -12 16 2 18 17 16 25 -3
18z"/>
<path d="M2427 1820 c-3 -11 -2 -20 3 -20 4 0 10 9 13 20 3 11 2 20 -3 20 -4
0 -10 -9 -13 -20z"/>
<path d="M1830 1824 c0 -5 7 -19 15 -30 13 -16 16 -17 25 -4 5 8 10 20 10 25
0 6 -5 3 -10 -5 -8 -13 -11 -12 -24 5 -9 11 -16 15 -16 9z"/>
<path d="M1150 1799 c-19 -11 -29 -19 -22 -19 9 0 11 -8 8 -22 -4 -18 -3 -17
6 3 6 14 23 33 37 42 35 22 14 19 -29 -4z"/>
<path d="M2050 1810 c0 -5 5 -10 10 -10 6 0 10 5 10 10 0 6 -4 10 -10 10 -5 0
-10 -4 -10 -10z"/>
<path d="M2325 1810 c-3 -5 3 -10 14 -10 12 0 21 5 21 10 0 6 -6 10 -14 10 -8
0 -18 -4 -21 -10z"/>
<path d="M2560 1810 c0 -5 5 -10 11 -10 5 0 7 5 4 10 -3 6 -8 10 -11 10 -2 0
-4 -4 -4 -10z"/>
<path d="M1897 1803 c-4 -3 -7 -11 -7 -17 0 -6 5 -5 12 2 6 6 9 14 7 17 -3 3
-9 2 -12 -2z"/>
<path d="M2446 1788 c-12 -17 -13 -25 -4 -37 20 -26 21 -27 16 -11 -3 8 1 27
9 43 16 32 1 36 -21 5z"/>
<path d="M2520 1778 l-23 -33 28 27 c16 15 26 30 23 33 -3 4 -16 -9 -28 -27z"/>
<path d="M2076 1773 c-3 -4 -23 -8 -44 -9 -78 -5 -117 -6 -127 -4 -42 10 -46
-14 -5 -35 42 -22 262 -22 280 0 19 23 -3 40 -47 36 -19 -1 -39 2 -43 8 -3 6
-10 8 -14 4z"/>
<path d="M2350 1770 c0 -5 5 -10 10 -10 6 0 10 5 10 10 0 6 -4 10 -10 10 -5 0
-10 -4 -10 -10z"/>
<path d="M2580 1771 c0 -5 5 -11 11 -13 6 -2 12 -16 12 -30 0 -19 4 -25 14
-21 7 3 13 2 12 -3 -5 -28 2 -43 17 -37 9 3 11 9 6 12 -5 3 -12 16 -16 29 -4
12 -11 22 -16 22 -4 0 -11 11 -14 25 -6 24 -26 36 -26 16z"/>
<path d="M1510 1759 c0 -5 5 -7 10 -4 6 3 10 8 10 11 0 2 -4 4 -10 4 -5 0 -10
-5 -10 -11z"/>
<path d="M1035 1750 c-3 -5 -1 -10 4 -10 6 0 11 5 11 10 0 6 -2 10 -4 10 -3 0
-8 -4 -11 -10z"/>
<path d="M1191 1751 c-7 -5 -9 -11 -5 -14 5 -3 15 1 22 9 14 16 5 18 -17 5z"/>
<path d="M2520 1745 c-7 -9 -10 -19 -6 -23 4 -4 12 1 17 11 6 9 14 15 20 12 5
-4 9 -1 9 4 0 16 -26 13 -40 -4z"/>
<path d="M1549 1723 l-24 -28 30 25 c17 14 32 26 34 28 2 1 0 2 -6 2 -5 0 -20
-12 -34 -27z"/>
<path d="M2396 1741 c-3 -5 -16 -7 -29 -4 -12 3 -19 3 -15 -1 11 -13 80 -16
75 -3 -5 15 -24 20 -31 8z"/>
<path d="M1077 1733 c-3 -5 1 -14 8 -20 11 -10 13 -9 12 7 -1 20 -12 26 -20
13z"/>
<path d="M1396 1732 c-3 -5 8 -6 25 -4 16 2 29 6 29 8 0 8 -49 4 -54 -4z"/>
<path d="M2476 1724 c-5 -14 -4 -15 9 -4 17 14 19 20 6 20 -5 0 -12 -7 -15
-16z"/>
<path d="M2563 1733 c-17 -6 -17 -33 0 -33 7 0 13 9 14 20 1 11 1 20 0 19 -1
0 -8 -3 -14 -6z"/>
<path d="M2306 1705 c17 -25 34 -33 34 -15 0 6 12 10 28 11 24 0 25 1 7 9 -11
4 -24 4 -29 -1 -13 -12 -29 -12 -22 0 3 5 -1 12 -10 15 -25 9 -26 8 -8 -19z"/>
<path d="M1425 1710 c-3 -5 -1 -10 4 -10 6 0 11 5 11 10 0 6 -2 10 -4 10 -3 0
-8 -4 -11 -10z"/>
<path d="M2410 1708 c0 -11 28 -10 35 1 3 6 -4 9 -15 8 -11 -1 -20 -5 -20 -9z"/>
<path d="M973 1704 c4 -4 2 -13 -4 -21 -15 -17 -1 -17 16 1 12 12 12 15 -2 21
-10 3 -14 3 -10 -1z"/>
<path d="M2486 1702 c-2 -4 -1 -14 4 -22 7 -11 11 -11 24 2 14 15 14 17 0 22
-20 8 -22 8 -28 -2z"/>
<path d="M1473 1693 c9 -2 23 -2 30 0 6 3 -1 5 -18 5 -16 0 -22 -2 -12 -5z"/>
<path d="M1085 1680 c-3 -6 1 -7 9 -4 18 7 21 14 7 14 -6 0 -13 -4 -16 -10z"/>
<path d="M2400 1681 c0 -8 -8 -10 -22 -7 -13 3 -17 3 -10 0 6 -3 10 -10 6 -15
-3 -5 -1 -9 4 -9 14 0 36 29 28 37 -3 3 -6 1 -6 -6z"/>
<path d="M2420 1671 c-13 -25 -13 -34 0 -26 15 9 12 -11 -3 -24 -8 -6 -17 -7
-21 -3 -4 4 -11 7 -16 7 -4 0 -17 11 -29 25 l-21 25 17 -38 c14 -30 21 -36 37
-31 18 6 19 5 8 -9 -17 -20 0 -57 26 -57 14 0 15 -2 2 -10 -11 -7 -12 -12 -4
-20 9 -9 13 -4 19 17 8 35 24 55 38 46 5 -3 7 -1 3 5 -3 6 4 19 17 29 17 13
21 21 13 29 -8 8 -14 5 -22 -10 -6 -12 -16 -20 -22 -18 -7 1 -12 -5 -12 -13 0
-8 -4 -15 -10 -15 -5 0 -10 -7 -10 -15 0 -17 -16 -20 -25 -4 -4 5 5 28 19 50
15 21 21 39 15 39 -6 0 -9 6 -6 13 2 6 15 11 28 10 22 -2 22 -2 4 6 -29 14
-33 13 -45 -8z"/>
<path d="M2545 1680 c-3 -5 -5 -10 -3 -11 28 -7 38 -5 38 7 0 16 -26 19 -35 4z"/>
<path d="M1150 1676 c0 -2 7 -7 16 -10 8 -3 12 -2 9 4 -6 10 -25 14 -25 6z"/>
<path d="M1118 1663 c7 -3 16 -2 19 1 4 3 -2 6 -13 5 -11 0 -14 -3 -6 -6z"/>
<path d="M2590 1660 c0 -5 7 -7 15 -4 8 4 15 8 15 10 0 2 -7 4 -15 4 -8 0 -15
-4 -15 -10z"/>
<path d="M2665 1643 c6 -22 -12 -63 -28 -63 -4 0 -5 5 -2 10 3 6 -1 10 -9 10
-8 0 -17 -4 -21 -10 -3 -5 -11 -8 -18 -6 -7 1 -9 1 -5 -1 4 -2 4 -11 1 -19 -3
-8 0 -14 6 -14 6 0 11 7 11 15 0 8 4 15 8 15 5 0 6 -14 4 -31 -3 -22 -7 -27
-13 -18 -6 11 -11 11 -21 1 -7 -7 -8 -12 -1 -12 6 0 8 -16 6 -40 -4 -43 12
-56 19 -15 3 14 1 25 -5 25 -6 0 -3 8 6 18 10 10 17 28 17 40 0 15 6 22 20 22
11 0 23 7 26 15 4 8 10 15 15 15 6 0 5 -9 -1 -20 -8 -16 -8 -18 4 -14 16 6 33
-15 20 -25 -5 -3 -18 -17 -29 -31 -13 -16 -14 -20 -4 -12 18 14 67 1 81 -21 5
-8 8 -4 8 9 0 12 -7 27 -15 34 -8 7 -15 18 -15 24 0 6 -16 36 -36 66 -19 30
-32 45 -29 33z m65 -123 c0 -5 -7 -10 -16 -10 -8 0 -12 5 -9 10 3 6 10 10 16
10 5 0 9 -4 9 -10z"/>
<path d="M2530 1633 c0 -10 4 -14 8 -8 4 6 11 13 16 18 5 4 2 7 -7 7 -10 0
-17 -8 -17 -17z"/>
<path d="M2628 1641 c-1 -4 -14 -12 -27 -16 -18 -5 -22 -4 -16 6 4 8 -7 -1
-24 -19 -18 -18 -29 -37 -26 -43 9 -14 25 0 25 22 0 11 6 19 13 18 18 -3 67
19 67 31 0 12 -7 13 -12 1z"/>
<path d="M1085 1629 c-4 -6 -5 -12 -2 -15 2 -3 7 2 10 11 7 17 1 20 -8 4z"/>
<path d="M920 1620 c0 -5 5 -10 11 -10 5 0 7 5 4 10 -3 6 -8 10 -11 10 -2 0
-4 -4 -4 -10z"/>
<path d="M1342 1600 c-12 -20 -12 -21 13 -4 28 18 31 24 12 24 -7 0 -18 -9
-25 -20z"/>
<path d="M970 1599 c0 -5 5 -7 10 -4 6 3 10 8 10 11 0 2 -4 4 -10 4 -5 0 -10
-5 -10 -11z"/>
<path d="M1120 1595 c-7 -8 -8 -15 -2 -15 5 0 15 7 22 15 7 8 8 15 2 15 -5 0
-15 -7 -22 -15z"/>
<path d="M1078 1583 c7 -3 16 -2 19 1 4 3 -2 6 -13 5 -11 0 -14 -3 -6 -6z"/>
<path d="M1504 1582 c-9 -5 -8 -11 2 -20 12 -11 14 -9 14 8 0 22 0 23 -16 12z"/>
<path d="M1415 1560 c-3 -5 -2 -10 4 -10 5 0 13 5 16 10 3 6 2 10 -4 10 -5 0
-13 -4 -16 -10z"/>
<path d="M2504 1539 c-19 -22 -19 -22 4 -8 12 8 22 17 22 21 0 12 -6 9 -26
-13z"/>
<path d="M1475 1540 c-3 -5 -1 -10 4 -10 6 0 11 5 11 10 0 6 -2 10 -4 10 -3 0
-8 -4 -11 -10z"/>
<path d="M2640 1534 c0 -8 5 -12 10 -9 6 3 10 10 10 16 0 5 -4 9 -10 9 -5 0
-10 -7 -10 -16z"/>
<path d="M2460 1525 c0 -8 2 -15 4 -15 2 0 6 7 10 15 3 8 1 15 -4 15 -6 0 -10
-7 -10 -15z"/>
<path d="M1335 1519 c-10 -15 3 -25 16 -12 7 7 7 13 1 17 -6 3 -14 1 -17 -5z"/>
<path d="M1500 1514 c0 -8 5 -12 10 -9 6 3 10 10 10 16 0 5 -4 9 -10 9 -5 0
-10 -7 -10 -16z"/>
<path d="M1855 1520 c-3 -5 -1 -10 4 -10 6 0 11 5 11 10 0 6 -2 10 -4 10 -3 0
-8 -4 -11 -10z"/>
<path d="M2146 1515 c-11 -8 -17 -17 -14 -20 2 -3 13 4 23 15 21 23 18 25 -9
5z"/>
<path d="M2246 1515 c-3 -8 -12 -12 -21 -9 -8 3 -15 2 -15 -4 0 -14 29 -19 70
-11 21 4 26 7 13 8 -12 0 -25 6 -29 13 -5 8 -2 9 9 5 10 -3 17 -2 17 3 0 16
-37 11 -44 -5z"/>
<path d="M1395 1510 c-3 -5 -1 -10 4 -10 6 0 11 5 11 10 0 6 -2 10 -4 10 -3 0
-8 -4 -11 -10z"/>
<path d="M1670 1510 c0 -5 5 -10 10 -10 6 0 10 5 10 10 0 6 -4 10 -10 10 -5 0
-10 -4 -10 -10z"/>
<path d="M1703 1497 c-7 -15 -20 -30 -28 -33 -8 -4 -15 -16 -14 -28 0 -14 2
-16 6 -6 3 8 17 25 30 37 14 12 23 30 21 39 -2 14 -6 12 -15 -9z"/>
<path d="M1870 1500 c-14 -11 -20 -20 -14 -20 6 0 19 9 29 20 23 25 17 25 -15
0z"/>
<path d="M2080 1509 c0 -5 5 -7 10 -4 6 3 10 8 10 11 0 2 -4 4 -10 4 -5 0 -10
-5 -10 -11z"/>
<path d="M1300 1495 c-7 -9 -11 -18 -8 -20 3 -3 11 1 18 10 7 9 11 18 8 20 -3
3 -11 -1 -18 -10z"/>
<path d="M2005 1500 c4 -6 11 -8 16 -5 14 9 11 15 -7 15 -8 0 -12 -5 -9 -10z"/>
<path d="M2544 1486 c-10 -22 -10 -24 6 -14 10 7 16 18 13 25 -7 17 -6 17 -19
-11z"/>
<path d="M2615 1500 c-4 -6 -1 -10 6 -10 10 0 10 -3 1 -12 -19 -19 -14 -33 6
-15 10 10 22 14 25 10 4 -3 7 -4 7 -2 0 12 -40 37 -45 29z"/>
<path d="M960 1489 c0 -5 5 -7 10 -4 6 3 10 8 10 11 0 2 -4 4 -10 4 -5 0 -10
-5 -10 -11z"/>
<path d="M1545 1490 c3 -5 12 -7 20 -3 21 7 19 13 -6 13 -11 0 -18 -4 -14 -10z"/>
<path d="M1895 1490 c-3 -5 -2 -10 4 -10 5 0 13 5 16 10 3 6 2 10 -4 10 -5 0
-13 -4 -16 -10z"/>
<path d="M2040 1490 c0 -5 5 -10 10 -10 6 0 10 5 10 10 0 6 -4 10 -10 10 -5 0
-10 -4 -10 -10z"/>
<path d="M2448 1494 c-9 -8 3 -44 14 -44 6 0 8 7 5 14 -4 11 -1 13 11 9 18 -7
17 -5 -9 15 -9 6 -18 9 -21 6z"/>
<path d="M1049 1473 c-13 -16 -12 -17 4 -4 9 7 17 15 17 17 0 8 -8 3 -21 -13z"/>
<path d="M1610 1481 c0 -5 7 -12 16 -15 14 -5 15 -4 4 9 -14 17 -20 19 -20 6z"/>
<path d="M1648 1483 c6 -2 18 -2 25 0 6 3 1 5 -13 5 -14 0 -19 -2 -12 -5z"/>
<path d="M1790 1480 c-8 -5 -11 -12 -8 -16 4 -3 14 1 23 10 18 17 9 21 -15 6z"/>
<path d="M1934 1479 c-4 -8 0 -9 15 -4 25 8 27 -2 4 -27 -9 -10 -12 -18 -7
-18 13 0 36 39 29 50 -8 13 -32 13 -41 -1z"/>
<path d="M2684 1476 c-4 -10 -16 -22 -28 -27 -44 -19 -114 -69 -97 -69 6 0 23
7 36 16 23 15 25 15 25 0 0 -9 4 -16 10 -16 13 0 28 32 22 49 -3 10 1 11 18 6
16 -5 20 -4 15 4 -4 7 -1 19 6 27 6 8 9 17 6 21 -4 3 -9 -2 -13 -11z"/>
<path d="M2712 1469 c-14 -21 -7 -59 9 -59 15 0 24 33 10 38 -9 3 -9 7 -1 17
6 7 7 16 2 18 -4 3 -14 -3 -20 -14z"/>
<path d="M2075 1452 c-30 -31 -42 -74 -18 -65 8 3 12 12 9 19 -3 7 11 27 32
44 22 18 30 30 21 30 -9 0 -28 -13 -44 -28z"/>
<path d="M2187 1460 c-3 -11 -1 -20 4 -20 5 0 9 9 9 20 0 11 -2 20 -4 20 -2 0
-6 -9 -9 -20z"/>
<path d="M1515 1460 c-3 -5 -1 -10 4 -10 6 0 11 5 11 10 0 6 -2 10 -4 10 -3 0
-8 -4 -11 -10z"/>
<path d="M2255 1460 c-7 -12 2 -12 30 0 19 8 19 9 -2 9 -12 1 -25 -3 -28 -9z"/>
<path d="M2308 1453 c-16 -8 -28 -18 -28 -23 0 -5 -8 -7 -17 -4 -15 5 -15 4
-4 -4 13 -9 13 -13 1 -29 -8 -10 -2 -7 13 6 19 17 27 20 28 10 0 -8 7 1 15 19
8 18 19 30 25 27 7 -5 7 -11 -1 -20 -8 -9 -5 -14 12 -18 30 -8 33 -3 13 27
-19 29 -20 29 -57 9z"/>
<path d="M1328 1449 c-10 -5 -18 -14 -18 -19 0 -17 15 -11 28 10 14 23 13 23
-10 9z"/>
<path d="M1405 1450 c-3 -5 -1 -10 4 -10 6 0 11 5 11 10 0 6 -2 10 -4 10 -3 0
-8 -4 -11 -10z"/>
<path d="M1565 1450 c-3 -5 -1 -10 4 -10 6 0 11 5 11 10 0 6 -2 10 -4 10 -3 0
-8 -4 -11 -10z"/>
<path d="M2150 1450 c0 -5 5 -10 10 -10 6 0 10 5 10 10 0 6 -4 10 -10 10 -5 0
-10 -4 -10 -10z"/>
<path d="M2217 1453 c-4 -3 -7 -11 -7 -17 0 -6 5 -5 12 2 6 6 9 14 7 17 -3 3
-9 2 -12 -2z"/>
<path d="M2770 1452 c0 -4 6 -14 13 -21 10 -10 9 -11 -6 -5 -13 5 -16 2 -11
-10 4 -11 -1 -19 -17 -24 -17 -7 -19 -11 -9 -17 9 -5 19 -1 31 13 18 23 35 31
23 11 -3 -6 -1 -15 6 -19 7 -4 9 -13 5 -20 -5 -9 -9 -9 -14 -1 -12 18 -59 -10
-76 -46 -14 -30 -25 -38 -47 -34 -5 0 -8 -7 -8 -16 0 -10 -12 -27 -27 -39 -17
-14 -24 -26 -20 -37 9 -23 24 -21 38 6 11 20 11 21 -4 8 -29 -23 -18 2 13 33
17 16 30 24 30 18 0 -7 5 -12 11 -12 6 0 8 9 4 20 -5 15 -2 20 10 20 11 0 15
5 11 15 -3 8 -1 15 4 15 6 0 10 7 10 16 0 8 4 13 9 9 6 -3 14 3 20 12 10 17
10 17 11 1 0 -12 5 -15 18 -11 15 6 15 5 3 -10 -9 -12 -10 -17 -2 -17 6 0 14
7 17 15 4 8 10 12 15 9 20 -12 7 35 -21 79 -28 45 -40 56 -40 39z"/>
<path d="M2475 1440 c-8 -14 19 -56 45 -70 16 -8 18 -8 14 4 -3 8 -12 17 -20
20 -7 3 -11 12 -8 21 4 10 0 15 -11 15 -9 0 -13 5 -10 10 3 6 4 10 1 10 -3 0
-8 -5 -11 -10z"/>
<path d="M1870 1419 c0 -5 5 -7 10 -4 6 3 10 8 10 11 0 2 -4 4 -10 4 -5 0 -10
-5 -10 -11z"/>
<path d="M2555 1420 c-3 -5 -1 -10 4 -10 6 0 11 5 11 10 0 6 -2 10 -4 10 -3 0
-8 -4 -11 -10z"/>
<path d="M1367 1391 c-16 -28 -16 -29 1 -24 10 2 19 15 20 29 2 31 0 30 -21
-5z"/>
<path d="M1580 1410 c0 -5 5 -10 11 -10 5 0 7 5 4 10 -3 6 -8 10 -11 10 -2 0
-4 -4 -4 -10z"/>
<path d="M2008 1413 c7 -3 16 -2 19 1 4 3 -2 6 -13 5 -11 0 -14 -3 -6 -6z"/>
<path d="M2120 1405 c0 -8 -4 -15 -9 -15 -5 0 -11 -7 -15 -15 -7 -20 8 -19 28
1 18 17 21 44 6 44 -5 0 -10 -7 -10 -15z"/>
<path d="M2675 1410 c3 -5 10 -10 16 -10 5 0 9 5 9 10 0 6 -7 10 -16 10 -8 0
-12 -4 -9 -10z"/>
<path d="M1307 1403 c-4 -3 -7 -13 -7 -22 1 -13 3 -13 11 2 11 19 8 33 -4 20z"/>
<path d="M1866 1383 c-6 -14 -5 -15 5 -6 7 7 10 15 7 18 -3 3 -9 -2 -12 -12z"/>
<path d="M2368 1393 c-9 -2 -23 -20 -30 -39 -6 -19 -16 -34 -21 -34 -5 0 -7 7
-3 15 9 26 -8 16 -21 -11 -10 -22 -10 -25 3 -20 9 3 22 6 30 6 7 0 16 11 20
25 3 13 13 30 21 37 12 10 17 9 24 -5 15 -27 28 -20 16 8 -7 14 -14 24 -17 24
-3 -1 -13 -3 -22 -6z"/>
<path d="M1990 1379 c0 -5 5 -7 10 -4 6 3 10 8 10 11 0 2 -4 4 -10 4 -5 0 -10
-5 -10 -11z"/>
<path d="M2707 1383 c-4 -3 -7 -11 -7 -17 0 -6 5 -5 12 2 6 6 9 14 7 17 -3 3
-9 2 -12 -2z"/>
<path d="M2190 1360 c-7 -14 -7 -20 0 -20 5 0 10 6 10 14 0 8 8 17 18 19 16 4
16 5 0 6 -10 0 -22 -8 -28 -19z"/>
<path d="M887 1363 c-4 -3 -7 -11 -7 -17 0 -6 5 -5 12 2 6 6 9 14 7 17 -3 3
-9 2 -12 -2z"/>
<path d="M1650 1361 c0 -5 -109 -8 -243 -8 -157 0 -250 -4 -262 -11 -18 -10
-18 -11 8 -17 15 -4 27 -11 27 -16 0 -5 197 -9 460 -9 l460 0 25 -40 c14 -22
26 -40 28 -40 1 0 3 9 3 20 0 11 -6 20 -13 20 -7 0 -13 5 -13 10 0 6 8 10 17
10 21 0 11 11 -13 14 -30 5 -26 22 8 39 18 9 26 17 17 17 -8 0 -21 -6 -27 -12
-10 -10 -17 -10 -34 1 -16 10 -66 13 -190 13 -100 0 -168 4 -168 10 0 5 -6 6
-12 1 -17 -10 -58 -11 -58 -1 0 4 -4 8 -10 8 -5 0 -10 -4 -10 -9z"/>
<path d="M2247 1359 c7 -7 15 -10 18 -7 3 3 -2 9 -12 12 -14 6 -15 5 -6 -5z"/>
<path d="M2643 1363 c-18 -2 -33 -9 -33 -15 0 -6 -11 -8 -25 -6 -14 3 -25 1
-25 -3 0 -5 -7 -9 -15 -9 -8 0 -15 -4 -15 -9 0 -10 29 -36 31 -27 1 3 2 12 3
19 1 6 12 11 26 9 13 -1 26 2 30 8 3 5 16 11 28 13 12 2 28 9 34 15 7 7 8 11
3 10 -6 0 -25 -3 -42 -5z"/>
<path d="M927 1329 c7 -7 15 -10 18 -7 3 3 -2 9 -12 12 -14 6 -15 5 -6 -5z"/>
<path d="M2401 1331 c-7 -5 -10 -14 -7 -20 5 -7 -3 -11 -22 -11 -42 0 -78 -21
-74 -43 3 -15 6 -14 24 8 10 14 27 25 36 25 15 -1 15 -2 0 -11 -10 -5 -18 -14
-18 -19 0 -5 20 1 45 14 39 21 45 22 45 8 1 -15 2 -15 11 0 7 12 6 24 -1 38
-12 22 -18 24 -39 11z"/>
<path d="M2825 1309 c-27 -33 -22 -49 18 -49 9 0 17 -4 17 -10 0 -5 -3 -9 -7
-9 -21 4 -73 -25 -73 -40 0 -31 13 -32 27 -4 11 23 12 24 9 5 -2 -12 0 -20 5
-16 5 3 9 14 9 25 0 12 7 19 19 19 11 0 22 6 25 13 7 17 36 -21 29 -39 -3 -8
1 -14 10 -14 23 0 31 -19 12 -27 -10 -3 -21 0 -25 8 -10 16 -19 9 -24 -17 -3
-11 -8 -27 -12 -38 -5 -14 -3 -17 7 -14 8 3 13 12 11 22 -2 9 4 16 14 16 10 0
14 -5 10 -15 -3 -8 -3 -15 0 -15 2 0 9 12 15 27 7 20 12 24 18 14 18 -29 20 9
3 41 -48 83 -65 108 -74 108 -6 0 -8 7 -5 15 11 28 -12 25 -38 -6z m25 -12 c0
-8 -7 -14 -15 -14 -16 0 -19 9 -8 20 11 11 23 8 23 -6z"/>
<path d="M785 1300 c-10 -11 -15 -20 -12 -20 4 0 16 9 27 20 11 11 16 20 12
20 -5 0 -17 -9 -27 -20z"/>
<path d="M2148 1313 c7 -3 16 -2 19 1 4 3 -2 6 -13 5 -11 0 -14 -3 -6 -6z"/>
<path d="M2592 1304 c10 -10 20 -15 24 -12 3 4 -5 12 -18 18 -22 12 -22 12 -6
-6z"/>
<path d="M2632 1299 c-8 -12 -22 -20 -35 -19 -12 1 -25 2 -30 1 -9 -1 20 -61
30 -61 15 0 51 43 47 55 -3 7 -1 16 5 20 13 7 15 25 3 25 -4 0 -13 -9 -20 -21z
m-12 -39 c0 -5 -8 -10 -17 -10 -15 0 -16 2 -3 10 19 12 20 12 20 0z"/>
<path d="M2677 1313 c-4 -3 -7 -11 -7 -17 0 -6 5 -5 12 2 6 6 9 14 7 17 -3 3
-9 2 -12 -2z"/>
<path d="M2252 1275 c-7 -8 -9 -15 -4 -15 5 0 15 7 22 15 16 19 -1 19 -18 0z"/>
<path d="M2195 1269 c-4 -6 -5 -12 -2 -15 2 -3 7 2 10 11 7 17 1 20 -8 4z"/>
<path d="M2447 1265 c-14 -10 -15 -14 -5 -18 8 -4 7 -6 -4 -6 -10 -1 -18 4
-18 9 0 6 -5 10 -10 10 -6 0 -6 -7 2 -19 9 -15 17 -17 34 -11 12 5 25 6 28 3
9 -9 7 20 -2 34 -5 8 -12 8 -25 -2z"/>
<path d="M2738 1266 c-10 -7 -18 -16 -18 -19 0 -13 35 2 38 16 4 20 2 20 -20
3z"/>
<path d="M2265 1250 c-4 -6 -11 -7 -17 -4 -6 4 -6 0 1 -13 6 -11 9 -22 8 -24
-1 -2 4 2 11 10 11 14 17 41 8 41 -3 0 -8 -5 -11 -10z"/>
<path d="M2376 1251 c-4 -6 -5 -11 -1 -11 3 0 1 -9 -5 -20 -13 -24 -5 -26 16
-5 10 10 12 20 6 31 -6 11 -11 13 -16 5z"/>
<path d="M2755 1230 c-10 -11 -14 -20 -9 -20 5 0 0 -7 -10 -15 -15 -11 -16
-15 -5 -15 9 0 23 16 32 35 19 40 17 43 -8 15z"/>
<path d="M2298 1208 c5 -21 23 -23 40 -6 21 21 13 32 -8 13 -16 -14 -19 -15
-15 -4 4 10 0 16 -8 16 -9 0 -12 -7 -9 -19z"/>
<path d="M2490 1219 c0 -10 -8 -16 -22 -15 -11 0 -23 -4 -25 -10 -2 -6 10 -8
32 -6 37 4 40 8 25 32 -8 13 -10 13 -10 -1z"/>
<path d="M2690 1215 c17 -10 20 -14 9 -15 -9 0 -19 -10 -22 -22 -8 -28 -5 -30
24 -19 20 8 21 10 5 10 -19 1 -18 2 2 24 29 31 28 34 -10 35 l-33 1 25 -14z"/>
<path d="M2881 1222 c-1 -9 -8 -11 -22 -7 -16 5 -20 3 -17 -6 3 -8 14 -12 24
-11 24 5 27 8 21 24 -4 11 -6 11 -6 0z"/>
<path d="M2205 1190 c-3 -5 -1 -10 4 -10 6 0 11 5 11 10 0 6 -2 10 -4 10 -3 0
-8 -4 -11 -10z"/>
<path d="M2226 1165 c-3 -8 -1 -15 3 -15 5 0 11 7 15 15 3 8 1 15 -3 15 -5 0
-11 -7 -15 -15z"/>
<path d="M2306 1165 c-3 -8 -12 -12 -21 -9 -8 3 -15 2 -15 -3 0 -13 43 -14 52
0 10 16 10 27 -1 27 -5 0 -11 -7 -15 -15z"/>
<path d="M2395 1170 c-16 -7 -17 -9 -3 -9 9 -1 20 4 23 9 7 11 7 11 -20 0z"/>
<path d="M2830 1170 c0 -5 6 -10 14 -10 8 0 18 5 21 10 3 6 -3 10 -14 10 -12
0 -21 -4 -21 -10z"/>
<path d="M2182 1158 c-15 -15 -16 -28 -2 -28 6 0 10 7 10 16 0 8 5 12 10 9 6
-3 10 -1 10 4 0 14 -13 14 -28 -1z"/>
<path d="M2517 1151 c3 -10 0 -22 -6 -25 -6 -4 -11 -12 -11 -18 0 -7 5 -7 14
1 11 9 18 8 30 -4 20 -20 20 -23 0 -42 -11 -11 -18 -13 -23 -5 -18 30 -109
-21 -97 -54 3 -7 -9 -10 -35 -8 -21 2 -39 0 -39 -5 0 -5 16 -8 35 -7 25 1 34
-2 30 -11 -2 -8 4 -13 15 -13 11 0 20 5 20 11 0 5 -5 7 -12 3 -7 -4 -8 -3 -4
5 4 6 12 9 17 6 5 -4 9 -2 9 4 0 5 -8 11 -17 13 -16 3 -15 6 6 27 18 18 30 22
57 18 24 -4 40 0 56 13 22 17 22 19 5 37 -9 11 -14 23 -10 26 3 4 2 7 -4 7 -6
0 -13 9 -16 20 -3 11 -10 20 -15 20 -6 0 -8 -8 -5 -19z"/>
<path d="M2637 1163 c-6 -10 82 -163 94 -163 5 0 5 10 -1 24 -6 16 -5 28 3 36
9 10 7 11 -11 5 -22 -6 -23 -6 -13 44 1 2 8 -2 16 -9 13 -11 14 -10 9 4 -3 9
-10 16 -16 16 -5 0 -7 4 -3 9 3 6 -6 6 -25 1 -32 -9 -46 1 -36 25 5 15 -9 21
-17 8z m63 -47 c0 -3 -4 -8 -10 -11 -5 -3 -10 -1 -10 4 0 6 5 11 10 11 6 0 10
-2 10 -4z"/>
<path d="M1784 1145 c-10 -8 -14 -15 -8 -15 5 0 19 7 30 15 10 8 14 15 8 15
-5 0 -19 -7 -30 -15z"/>
<path d="M2450 1150 c-9 -6 -10 -10 -3 -10 6 0 15 5 18 10 8 12 4 12 -15 0z"/>
<path d="M1125 1140 c3 -5 8 -10 11 -10 2 0 4 5 4 10 0 6 -5 10 -11 10 -5 0
-7 -4 -4 -10z"/>
<path d="M1645 1140 c-4 -6 -11 -7 -17 -4 -7 4 -8 2 -4 -4 10 -17 33 -15 40 3
6 17 -9 21 -19 5z"/>
<path d="M1853 1143 c-21 -8 -15 -22 7 -16 11 3 20 9 20 14 0 10 -8 10 -27 2z"/>
<path d="M2008 1143 c7 -3 16 -2 19 1 4 3 -2 6 -13 5 -11 0 -14 -3 -6 -6z"/>
<path d="M2086 1135 c-9 -26 -7 -32 5 -12 6 10 9 21 6 23 -2 3 -7 -2 -11 -11z"/>
<path d="M2386 1141 c-14 -5 -16 -10 -8 -15 7 -4 19 0 28 8 17 17 11 19 -20 7z"/>
<path d="M2745 1140 c-3 -6 1 -7 9 -4 18 7 21 14 7 14 -6 0 -13 -4 -16 -10z"/>
<path d="M2795 1136 c-11 -6 -25 -17 -33 -24 -11 -10 -10 -12 5 -9 10 1 23 6
30 10 18 11 25 -9 8 -23 -8 -7 -15 -18 -15 -26 0 -7 -5 -16 -11 -20 -8 -5 -10
1 -7 20 3 14 1 26 -3 26 -9 0 -10 -7 -12 -62 -1 -13 -7 -27 -14 -33 -18 -14
-3 -32 31 -36 29 -4 31 -3 57 56 17 37 41 63 56 58 6 -2 18 3 26 12 9 8 20 15
25 15 6 0 13 6 15 13 4 9 8 8 16 -3 17 -24 13 -31 -14 -24 -19 5 -25 2 -25
-10 0 -9 -8 -20 -17 -23 -28 -11 -52 -46 -47 -68 5 -22 -11 -53 -22 -42 -4 3
-1 13 6 22 7 8 8 15 4 15 -5 0 -15 -9 -22 -21 -9 -13 -21 -19 -37 -17 -13 2
-24 0 -25 -4 0 -5 0 -12 0 -16 0 -4 13 -15 29 -25 23 -14 54 -17 160 -17 161
0 168 6 115 90 -19 30 -42 69 -50 86 -8 17 -24 40 -34 52 -10 11 -16 23 -13
26 16 15 -17 4 -40 -14 -14 -11 -40 -23 -57 -27 -19 -3 -47 -21 -65 -42 -34
-37 -39 -55 -9 -30 16 13 16 12 5 -8 -6 -13 -16 -23 -22 -23 -6 0 -7 -4 -4
-10 3 -5 0 -10 -8 -10 -20 0 -10 48 15 75 11 11 26 32 34 48 8 15 19 27 24 27
6 0 10 4 10 9 0 14 -44 19 -65 7z m205 -72 c0 -20 -4 -24 -19 -19 -11 3 -25
-1 -34 -10 -9 -8 -22 -15 -30 -15 -9 0 -18 -6 -20 -12 -3 -8 -6 -8 -6 -2 -2
19 60 66 80 61 10 -3 18 -2 17 2 -1 11 2 21 7 21 3 0 5 -12 5 -26z m20 -28 c0
-8 -7 -16 -15 -20 -12 -4 -13 -2 -2 14 14 24 17 25 17 6z m-40 -31 c0 -8 -4
-15 -10 -15 -5 0 -10 -4 -10 -10 0 -16 25 -11 50 10 25 22 36 20 27 -5 -4 -8
-15 -15 -26 -15 -11 0 -23 -5 -26 -10 -4 -6 -10 -8 -15 -5 -5 3 -20 1 -34 -5
-17 -6 -26 -6 -26 0 0 6 6 10 14 10 7 0 19 14 26 30 13 32 30 40 30 15z m-43
-1 c-3 -3 -12 -4 -19 -1 -8 3 -5 6 6 6 11 1 17 -2 13 -5z m-12 -24 c3 -5 -3
-10 -15 -10 -12 0 -18 5 -15 10 3 6 10 10 15 10 5 0 12 -4 15 -10z m123 -24
c-7 -8 -15 -12 -17 -11 -5 6 10 25 20 25 5 0 4 -6 -3 -14z"/>
<path d="M1305 1133 c-31 -7 -38 -19 -26 -40 11 -16 11 -16 6 5 -5 17 -2 22
14 22 11 0 23 5 26 10 3 6 5 9 3 9 -2 -1 -12 -3 -23 -6z"/>
<path d="M2114 1113 c-20 -30 -46 -104 -39 -112 3 -2 7 5 11 15 16 52 24 63
39 58 8 -3 15 -1 15 4 0 6 -8 13 -17 15 -17 4 -17 5 0 6 10 1 17 9 17 21 0 26
-4 25 -26 -7z"/>
<path d="M2325 1130 c-3 -5 -1 -10 4 -10 6 0 11 5 11 10 0 6 -2 10 -4 10 -3 0
-8 -4 -11 -10z"/>
<path d="M2470 1131 c0 -5 -10 -12 -22 -14 -22 -4 -22 -4 -2 -6 12 0 27 6 34
14 9 10 9 15 1 15 -6 0 -11 -4 -11 -9z"/>
<path d="M1170 1120 c-8 -5 -12 -12 -9 -15 4 -3 12 1 19 10 14 17 11 19 -10 5z"/>
<path d="M1380 1119 c0 -5 5 -7 10 -4 6 3 10 8 10 11 0 2 -4 4 -10 4 -5 0 -10
-5 -10 -11z"/>
<path d="M2036 1115 c4 -8 8 -15 10 -15 2 0 4 7 4 15 0 8 -4 15 -10 15 -5 0
-7 -7 -4 -15z"/>
<path d="M1688 1113 c7 -3 16 -2 19 1 4 3 -2 6 -13 5 -11 0 -14 -3 -6 -6z"/>
<path d="M1900 1109 c0 -5 5 -7 10 -4 6 3 10 8 10 11 0 2 -4 4 -10 4 -5 0 -10
-5 -10 -11z"/>
<path d="M2185 1110 c-3 -5 -1 -10 4 -10 6 0 11 5 11 10 0 6 -2 10 -4 10 -3 0
-8 -4 -11 -10z"/>
<path d="M2242 1101 c-7 -13 -8 -21 -2 -21 5 0 10 -8 10 -17 0 -15 2 -16 10
-3 13 20 13 33 0 25 -5 -3 -10 -1 -10 4 0 6 5 12 10 12 6 1 16 2 23 3 6 1 15
-3 19 -8 4 -6 15 -6 30 1 21 10 21 11 3 12 -11 0 -33 3 -50 6 -23 5 -33 2 -43
-14z"/>
<path d="M2360 1106 c0 -8 6 -17 13 -19 7 -4 4 -8 -10 -12 -11 -4 -23 -15 -26
-26 -6 -23 8 -26 17 -3 3 8 10 13 15 10 12 -8 21 18 14 43 -6 24 -23 29 -23 7z"/>
<path d="M1575 1100 c-3 -6 1 -7 9 -4 18 7 21 14 7 14 -6 0 -13 -4 -16 -10z"/>
<path d="M1845 1100 c-4 -6 3 -10 14 -10 25 0 27 6 6 13 -8 4 -17 2 -20 -3z"/>
<path d="M2155 1090 c3 -5 8 -10 11 -10 2 0 4 5 4 10 0 6 -5 10 -11 10 -5 0
-7 -4 -4 -10z"/>
<path d="M2423 1093 c-13 -2 -23 -9 -23 -14 0 -14 26 -11 40 6 7 8 11 14 9 14
-2 -1 -14 -4 -26 -6z"/>
<path d="M1350 1080 c0 -5 4 -10 9 -10 6 0 13 5 16 10 3 6 -1 10 -9 10 -9 0
-16 -4 -16 -10z"/>
<path d="M1440 1080 c0 -5 5 -10 11 -10 5 0 7 5 4 10 -3 6 -8 10 -11 10 -2 0
-4 -4 -4 -10z"/>
<path d="M1515 1080 c-3 -5 -1 -10 4 -10 6 0 11 5 11 10 0 6 -2 10 -4 10 -3 0
-8 -4 -11 -10z"/>
<path d="M1660 1080 c0 -5 7 -10 15 -10 8 0 15 5 15 10 0 6 -7 10 -15 10 -8 0
-15 -4 -15 -10z"/>
<path d="M2018 1083 c6 -2 18 -2 25 0 6 3 1 5 -13 5 -14 0 -19 -2 -12 -5z"/>
<path d="M2060 1075 c-7 -9 -10 -18 -7 -21 3 -3 10 4 17 15 13 25 8 27 -10 6z"/>
<path d="M2190 1080 c0 -5 5 -10 11 -10 5 0 7 5 4 10 -3 6 -8 10 -11 10 -2 0
-4 -4 -4 -10z"/>
<path d="M2478 1083 c7 -3 16 -2 19 1 4 3 -2 6 -13 5 -11 0 -14 -3 -6 -6z"/>
<path d="M1855 1069 c4 -5 1 -16 -5 -25 -10 -11 -16 -12 -26 -3 -9 7 -14 8
-14 1 0 -12 29 -24 41 -16 5 3 13 13 19 24 7 13 6 19 -6 24 -9 3 -12 2 -9 -5z"/>
<path d="M1976 1065 c-3 -8 -1 -15 4 -15 6 0 10 7 10 15 0 8 -2 15 -4 15 -2 0
-6 -7 -10 -15z"/>
<path d="M2280 1064 c0 -14 3 -14 15 -4 8 7 15 14 15 16 0 2 -7 4 -15 4 -8 0
-15 -7 -15 -16z"/>
<path d="M1305 1059 c-4 -6 -5 -12 -2 -15 2 -3 7 2 10 11 7 17 1 20 -8 4z"/>
<path d="M1692 1033 c-24 -28 -39 -37 -59 -35 -22 1 -24 0 -13 -8 19 -12 60
-13 60 -1 0 15 45 61 59 61 7 0 9 5 6 10 -10 16 -19 12 -53 -27z"/>
<path d="M2573 1058 c-17 -21 -26 -58 -14 -58 6 0 11 7 11 15 0 8 5 15 11 15
7 0 9 -9 6 -22 -5 -21 -5 -21 7 -6 7 10 16 15 19 11 13 -13 7 -30 -15 -42 -22
-11 -22 -11 5 -6 16 3 27 1 27 -5 0 -6 5 -8 10 -5 6 3 10 3 10 -2 0 -4 -30 -9
-66 -10 -65 -1 -66 -1 -60 23 4 14 2 24 -4 24 -5 0 -10 -11 -10 -25 0 -29 -6
-31 -26 -10 -13 13 -18 13 -29 2 -17 -17 -115 -22 -115 -6 0 8 11 9 33 5 23
-4 28 -3 17 4 -21 13 -67 13 -72 -1 -4 -13 -58 -22 -58 -10 0 5 -11 9 -25 9
-13 0 -23 -3 -21 -7 2 -3 -25 -7 -60 -9 -43 -2 -64 1 -64 9 0 8 -4 8 -12 1 -7
-5 -37 -10 -66 -11 -50 -1 -52 0 -42 20 10 18 10 19 -9 7 -12 -7 -21 -16 -21
-19 0 -4 -47 -7 -105 -7 -72 0 -105 4 -105 12 0 7 -3 7 -8 1 -11 -16 -138 -13
-135 3 4 18 -14 15 -21 -4 -3 -9 -13 -13 -23 -10 -43 12 -87 17 -75 8 10 -7
-221 -17 -298 -13 -77 4 -257 -2 -269 -9 -9 -5 -11 -10 -4 -10 6 0 19 -7 28
-16 15 -15 94 -17 872 -18 698 -1 859 1 870 12 7 7 13 15 13 17 0 4 -87 145
-93 151 -2 3 -9 -1 -14 -8z"/>
<path d="M1147 1053 c-13 -12 -7 -18 18 -19 14 -1 25 2 25 8 0 5 -4 6 -10 3
-5 -3 -10 -1 -10 4 0 12 -13 14 -23 4z"/>
<path d="M1200 1050 c0 -5 5 -10 11 -10 5 0 7 5 4 10 -3 6 -8 10 -11 10 -2 0
-4 -4 -4 -10z"/>
<path d="M1645 1049 c-11 -17 1 -21 15 -4 8 9 8 15 2 15 -6 0 -14 -5 -17 -11z"/>
<path d="M1889 1050 c-3 -20 -4 -25 -12 -37 -4 -6 -3 -14 2 -17 5 -3 11 2 14
12 2 9 8 25 12 35 4 10 3 17 -4 17 -6 0 -12 -4 -12 -10z"/>
<path d="M2110 1049 c0 -5 5 -7 10 -4 6 3 10 8 10 11 0 2 -4 4 -10 4 -5 0 -10
-5 -10 -11z"/>
<path d="M2403 1053 c-7 -2 -13 -11 -13 -19 0 -8 -6 -11 -17 -7 -15 5 -16 3
-6 -7 10 -11 17 -9 37 13 24 26 24 31 -1 20z"/>
<path d="M1260 1035 c0 -8 2 -15 4 -15 2 0 6 7 10 15 3 8 1 15 -4 15 -6 0 -10
-7 -10 -15z"/>
<path d="M1600 1040 c-23 -7 -23 -8 -3 -9 12 -1 25 4 28 9 3 6 5 10 3 9 -2 -1
-14 -5 -28 -9z"/>
<path d="M1940 1040 c0 -5 5 -10 10 -10 6 0 10 5 10 10 0 6 -4 10 -10 10 -5 0
-10 -4 -10 -10z"/>
<path d="M2148 1043 c6 -2 18 -2 25 0 6 3 1 5 -13 5 -14 0 -19 -2 -12 -5z"/>
<path d="M2214 1042 c-6 -4 -13 -15 -17 -24 -3 -10 -17 -18 -29 -18 -20 -1
-21 -2 -6 -10 22 -13 45 -3 53 23 4 14 8 17 12 9 5 -13 23 -7 23 9 0 6 -4 8
-9 5 -5 -4 -11 -2 -13 4 -1 5 -8 6 -14 2z"/>
<path d="M2292 1034 c-7 -8 -17 -12 -21 -9 -5 2 -11 -4 -14 -14 -5 -19 -4 -19
26 -2 17 9 32 22 35 29 5 17 -10 14 -26 -4z"/>
<path d="M1460 1029 c0 -5 5 -7 10 -4 6 3 10 8 10 11 0 2 -4 4 -10 4 -5 0 -10
-5 -10 -11z"/>
<path d="M2050 1025 c-7 -9 -8 -15 -2 -15 5 0 12 7 16 15 3 8 4 15 2 15 -2 0
-9 -7 -16 -15z"/>
<path d="M1295 1020 c-3 -5 -1 -10 4 -10 6 0 11 5 11 10 0 6 -2 10 -4 10 -3 0
-8 -4 -11 -10z"/>
<path d="M1515 1020 c-3 -5 -1 -10 4 -10 6 0 11 5 11 10 0 6 -2 10 -4 10 -3 0
-8 -4 -11 -10z"/>
<path d="M1759 1013 c-10 -11 -10 -14 -1 -9 8 5 12 1 12 -11 0 -15 2 -16 10
-3 6 10 6 16 0 18 -6 2 -8 8 -4 13 9 15 -3 10 -17 -8z"/>
<path d="M2126 1015 c-3 -8 -1 -15 4 -15 6 0 10 7 10 15 0 8 -2 15 -4 15 -2 0
-6 -7 -10 -15z"/>
<path d="M2497 1015 c-9 -7 -17 -18 -17 -26 0 -10 3 -11 8 -3 4 7 17 14 28 15
17 3 19 7 10 15 -9 8 -17 8 -29 -1z"/>
<path d="M1130 1005 c0 -8 2 -15 4 -15 2 0 6 7 10 15 3 8 1 15 -4 15 -6 0 -10
-7 -10 -15z"/>
<path d="M1806 1013 c-11 -11 -6 -24 7 -17 10 6 10 4 0 -7 -15 -16 -17 -29 -3
-29 18 0 29 34 15 47 -7 6 -16 9 -19 6z"/>
<path d="M1930 1010 l-25 -8 28 -1 c15 -1 27 4 27 9 0 6 -1 10 -2 9 -2 -1 -14
-5 -28 -9z"/>
<path d="M1086 994 c-11 -8 -16 -14 -10 -14 13 0 39 18 34 24 -3 2 -14 -2 -24
-10z"/>
<path d="M1175 1000 c3 -5 10 -10 16 -10 5 0 9 5 9 10 0 6 -7 10 -16 10 -8 0
-12 -4 -9 -10z"/>
<path d="M1260 1000 c0 -5 5 -10 10 -10 6 0 10 5 10 10 0 6 -4 10 -10 10 -5 0
-10 -4 -10 -10z"/>
<path d="M2320 999 c0 -5 5 -7 10 -4 6 3 10 8 10 11 0 2 -4 4 -10 4 -5 0 -10
-5 -10 -11z"/>
<path d="M2830 1000 c0 -5 5 -10 10 -10 6 0 10 5 10 10 0 6 -4 10 -10 10 -5 0
-10 -4 -10 -10z"/>
<path d="M2005 987 c-26 -29 -28 -39 -8 -28 11 6 23 8 26 5 7 -8 47 5 47 15 0
4 -6 8 -12 8 -7 0 -20 3 -28 6 -8 4 -20 1 -25 -6z"/>
<path d="M1305 980 c3 -5 8 -10 11 -10 2 0 4 5 4 10 0 6 -5 10 -11 10 -5 0 -7
-4 -4 -10z"/>
<path d="M1535 970 c-3 -5 -2 -10 4 -10 5 0 13 5 16 10 3 6 2 10 -4 10 -5 0
-13 -4 -16 -10z"/>
<path d="M1850 970 c-13 -8 -12 -10 3 -10 9 0 17 5 17 10 0 12 -1 12 -20 0z"/>
<path d="M1890 969 c0 -5 5 -7 10 -4 6 3 10 8 10 11 0 2 -4 4 -10 4 -5 0 -10
-5 -10 -11z"/>
<path d="M2100 973 c0 -19 21 -27 33 -13 9 10 9 11 -2 5 -8 -4 -17 -2 -22 6
-6 9 -9 10 -9 2z"/>
<path d="M2545 970 c-3 -5 -2 -10 4 -10 5 0 13 5 16 10 3 6 2 10 -4 10 -5 0
-13 -4 -16 -10z"/>
<path d="M1608 963 c7 -3 16 -2 19 1 4 3 -2 6 -13 5 -11 0 -14 -3 -6 -6z"/>
<path d="M1678 963 c7 -3 16 -2 19 1 4 3 -2 6 -13 5 -11 0 -14 -3 -6 -6z"/>
<path d="M1745 960 c-3 -5 -1 -10 4 -10 6 0 11 5 11 10 0 6 -2 10 -4 10 -3 0
-8 -4 -11 -10z"/>
</g>
</svg>
